<?xml version="1.0" encoding="UTF-8"?>
<!DOCTYPE svg PUBLIC "-//W3C//DTD SVG 1.1//EN" "http://www.w3.org/Graphics/SVG/1.1/DTD/svg11.dtd">
<svg xmlns="http://www.w3.org/2000/svg" version="1.1" width="796px" height="1098px" style="shape-rendering:geometricPrecision; text-rendering:geometricPrecision; image-rendering:optimizeQuality; fill-rule:evenodd; clip-rule:evenodd" xmlns:xlink="http://www.w3.org/1999/xlink">
<g><path style="opacity:0.998" fill="#0d1f1f" d="M 390.5,-0.5 C 391.5,-0.5 392.5,-0.5 393.5,-0.5C 443.684,3.28164 487.351,22.115 524.5,56C 550.539,81.023 572.373,109.19 590,140.5C 635.881,230.266 678.548,321.599 718,414.5C 744.492,478.309 765.158,543.976 780,611.5C 788.301,650.579 793.467,689.912 795.5,729.5C 795.5,736.833 795.5,744.167 795.5,751.5C 793.792,799.667 782.626,845.667 762,889.5C 739.653,938.174 709.153,981.007 670.5,1018C 629.297,1052.93 581.963,1075.6 528.5,1086C 489.028,1093.43 449.362,1097.26 409.5,1097.5C 406.833,1097.5 404.167,1097.5 401.5,1097.5C 358.764,1097.33 316.098,1094.16 273.5,1088C 191.53,1074.46 126.696,1033.96 79,966.5C 45.0355,918.894 21.0355,866.561 7,809.5C 3.16975,790.186 0.66975,770.853 -0.5,751.5C -0.5,743.833 -0.5,736.167 -0.5,728.5C 2.51284,668.428 12.6795,609.428 30,551.5C 50.1428,484.227 74.4761,418.56 103,354.5C 133.985,285.531 166.318,217.197 200,149.5C 221.014,107.808 249.514,71.9747 285.5,42C 316.761,18.3621 351.761,4.19541 390.5,-0.5 Z"/></g>
<g><path style="opacity:1" fill="#fefefd" d="M 416.5,33.5 C 457.546,43.2717 492.046,63.9384 520,95.5C 538.723,117.265 554.723,140.932 568,166.5C 600.291,232.371 631.625,298.704 662,365.5C 698.239,445.552 726.906,528.219 748,613.5C 757.639,655.115 762.806,697.282 763.5,740C 762.856,785.888 753.022,829.721 734,871.5C 713.516,916.69 686.016,956.856 651.5,992C 610.991,1028.91 563.325,1050.75 508.5,1057.5C 556.2,1038.88 595.7,1009.22 627,968.5C 657.496,927.185 681.496,882.185 699,833.5C 711.348,788.246 715.015,742.246 710,695.5C 703.048,634.072 689.715,574.072 670,515.5C 645.161,442.155 616.161,370.488 583,300.5C 560.939,254.045 538.606,207.711 516,161.5C 494.305,117.47 464.138,80.3036 425.5,50C 418.973,45.5721 412.307,41.4055 405.5,37.5C 408.6,34.7905 412.267,33.4571 416.5,33.5 Z"/></g>
<g><path style="opacity:1" fill="#739638" d="M 416.5,33.5 C 412.267,33.4571 408.6,34.7905 405.5,37.5C 391.519,44.829 378.519,53.6623 366.5,64C 336.033,92.4578 311.533,125.291 293,162.5C 249.081,249.672 208.414,338.339 171,428.5C 144.68,494.126 124.013,561.459 109,630.5C 100.704,673.455 97.0376,716.789 98,760.5C 100.446,804.619 111.779,846.286 132,885.5C 151.917,928.061 178.084,966.228 210.5,1000C 240.247,1028.21 274.581,1048.71 313.5,1061.5C 270.151,1058.25 229.151,1046.75 190.5,1027C 148.619,1001.45 115.119,967.619 90,925.5C 63.1274,883.745 45.1274,838.412 36,789.5C 29.0998,739.895 30.7665,690.561 41,641.5C 58.2114,560.864 82.878,482.53 115,406.5C 151.498,319.838 191.498,234.838 235,151.5C 256.135,113.364 284.635,81.8638 320.5,57C 334.828,47.8364 350.162,40.8364 366.5,36C 378.07,33.762 389.737,32.262 401.5,31.5C 406.716,31.6091 411.716,32.2758 416.5,33.5 Z"/></g>
<g><path style="opacity:1" fill="#bbc357" d="M 405.5,37.5 C 412.307,41.4055 418.973,45.5721 425.5,50C 464.138,80.3036 494.305,117.47 516,161.5C 538.606,207.711 560.939,254.045 583,300.5C 616.161,370.488 645.161,442.155 670,515.5C 689.715,574.072 703.048,634.072 710,695.5C 715.015,742.246 711.348,788.246 699,833.5C 681.496,882.185 657.496,927.185 627,968.5C 595.7,1009.22 556.2,1038.88 508.5,1057.5C 486.647,1060.96 464.647,1063.12 442.5,1064C 399.442,1065.25 356.442,1064.42 313.5,1061.5C 274.581,1048.71 240.247,1028.21 210.5,1000C 178.084,966.228 151.917,928.061 132,885.5C 111.779,846.286 100.446,804.619 98,760.5C 97.0376,716.789 100.704,673.455 109,630.5C 124.013,561.459 144.68,494.126 171,428.5C 208.414,338.339 249.081,249.672 293,162.5C 311.533,125.291 336.033,92.4578 366.5,64C 378.519,53.6623 391.519,44.829 405.5,37.5 Z"/></g>
<g><path style="opacity:1" fill="#0c1d1d" d="M 386.5,517.5 C 469.006,516.653 530.839,551.653 572,622.5C 606.855,693.794 602.855,762.794 560,829.5C 523.601,879.461 474.434,907.294 412.5,913C 326.764,916.392 262.93,880.892 221,806.5C 194.545,751.459 192.545,695.459 215,638.5C 249.039,565.55 306.205,525.217 386.5,517.5 Z"/></g>
<g><path style="opacity:1" fill="#5e362c" d="M 416.5,550.5 C 475.499,580.698 509.999,628.698 520,694.5C 525.001,779.2 490.501,841.533 416.5,881.5C 405.307,882.778 393.974,882.778 382.5,881.5C 307.348,841.224 272.848,778.224 279,692.5C 289.471,627.83 323.638,580.497 381.5,550.5C 393.162,549.192 404.829,549.192 416.5,550.5 Z"/></g>
<g><path style="opacity:1" fill="#fdfdfd" d="M 416.5,550.5 C 478.089,559.283 522.255,591.616 549,647.5C 571.747,702.512 567.747,755.512 537,806.5C 508.062,849.222 467.896,874.222 416.5,881.5C 490.501,841.533 525.001,779.2 520,694.5C 509.999,628.698 475.499,580.698 416.5,550.5 Z"/></g>
<g><path style="opacity:1" fill="#47271e" d="M 381.5,550.5 C 323.638,580.497 289.471,627.83 279,692.5C 272.848,778.224 307.348,841.224 382.5,881.5C 328.195,875.286 286.029,849.619 256,804.5C 228.612,757.377 223.945,708.044 242,656.5C 267.828,594.194 314.328,558.861 381.5,550.5 Z"/></g>
</svg>
